<svg id="Component_27_2" data-name="Component 27 – 2" xmlns="http://www.w3.org/2000/svg" width="27" height="27" viewBox="0 0 27 27">
  <path id="Path_8" data-name="Path 8" d="M26.889,10.319a3.762,3.762,0,0,0-2.834-2.735c-.113-.024-.225-.019-.338-.033A9.69,9.69,0,0,0,14.251,0h-1.5A9.692,9.692,0,0,0,3.285,7.551,3.7,3.7,0,0,0,0,11.25a3.754,3.754,0,0,0,1.5,2.985V21A2.99,2.99,0,0,0,3,23.583V24.75a2.25,2.25,0,0,0,4.5,0V24h12v.75a2.25,2.25,0,0,0,4.5,0V23.583A2.99,2.99,0,0,0,25.5,21V14.235A3.751,3.751,0,0,0,26.889,10.319ZM12.75,1.5h1.5A8.2,8.2,0,0,1,22.2,7.667a3.686,3.686,0,0,0-2.7,3.583V15H7.5V11.41A3.9,3.9,0,0,0,4.8,7.663,8.2,8.2,0,0,1,12.75,1.5ZM21,17.25a.751.751,0,0,1-.75.75H6.75a.75.75,0,1,1,0-1.5h13.5A.751.751,0,0,1,21,17.25ZM6,24.75a.75.75,0,1,1-1.5,0V24H6Zm16.5,0a.75.75,0,0,1-1.5,0V24h1.5Zm1.873-11.564a.749.749,0,0,0-.373.648V21a1.5,1.5,0,0,1-1.5,1.5H4.5A1.5,1.5,0,0,1,3,21V13.834a.751.751,0,0,0-.373-.648A2.225,2.225,0,0,1,1.5,11.25,2.252,2.252,0,0,1,4.133,9.031,2.359,2.359,0,0,1,6,11.41v3.728A2.244,2.244,0,0,0,6.75,19.5h13.5A2.244,2.244,0,0,0,21,15.138V11.25a2.25,2.25,0,1,1,3.373,1.936Z" transform="translate(0)" fill="#7e7979"/>
</svg>
