<svg id="Group_79" data-name="Group 79" xmlns="http://www.w3.org/2000/svg" width="33.353" height="33.353" viewBox="0 0 33.353 33.353">
  <path id="Path_15" data-name="Path 15" d="M32.658,0H.695A.694.694,0,0,0,0,.695V3.474a.694.694,0,0,0,.695.695H1.39V32.658a.694.694,0,0,0,.695.695,2.183,2.183,0,0,0,1.74-.932c.3-.346.424-.458.7-.458s.392.112.695.458a2.183,2.183,0,0,0,1.741.932,2.208,2.208,0,0,0,1.739-.932c.3-.345.423-.457.692-.457s.388.112.69.457a2.2,2.2,0,0,0,1.736.932.7.7,0,0,0,.622-1.006L7.143,21.764A12.568,12.568,0,0,0,12,13.955l1.779-9.786h5.789l1.779,9.786a12.567,12.567,0,0,0,4.859,7.808L20.916,32.322a.772.772,0,0,0-.064.432.7.7,0,0,0,.688.6,2.183,2.183,0,0,0,1.74-.932c.3-.346.424-.458.7-.458s.392.112.695.458a2.183,2.183,0,0,0,1.74.932,2.208,2.208,0,0,0,1.739-.932c.3-.345.423-.457.692-.457s.388.112.69.457a2.2,2.2,0,0,0,1.736.932.694.694,0,0,0,.695-.695V4.169h.695a.694.694,0,0,0,.695-.695V.695A.694.694,0,0,0,32.658,0ZM10.048,30.682a1.969,1.969,0,0,0-.662-.109,2.208,2.208,0,0,0-1.739.932c-.3.345-.423.457-.693.457s-.392-.112-.7-.458a2.183,2.183,0,0,0-1.74-.932,2.183,2.183,0,0,0-1.741.932V21.733a9.757,9.757,0,0,0,3.041.5Zm.588-16.975a11.165,11.165,0,0,1-4.6,7.132c-1.651-.032-3.112-.4-3.254-.689V4.169h9.59ZM30.573,31.5a2.084,2.084,0,0,0-3.47.006c-.3.345-.423.457-.693.457s-.392-.112-.7-.458a2.183,2.183,0,0,0-1.74-.932,2,2,0,0,0-.686.115l4.241-8.46a9.761,9.761,0,0,0,3.042-.5V31.5Zm0-11.36c-.154.306-1.609.668-3.254.7a11.164,11.164,0,0,1-4.6-7.132L20.983,4.169h9.59Zm1.39-17.36H1.39V1.39H31.963v1.39Z" fill="#7e7979"/>
</svg>
