<svg xmlns="http://www.w3.org/2000/svg" width="40.5" height="27" viewBox="0 0 40.5 27">
  <g id="Group_34" data-name="Group 34" transform="translate(-34 31)">
    <path id="Path_9" data-name="Path 9" d="M37.125,85.333H3.375A3.379,3.379,0,0,0,0,88.708v8.438a3.379,3.379,0,0,0,3.375,3.375H5.062v10.969a.843.843,0,0,0,.844.844H7.594a.844.844,0,0,0,.836-.724l1.584-11.088H30.487l1.584,11.088a.844.844,0,0,0,.836.724h1.687a.843.843,0,0,0,.844-.844V100.52h1.687A3.379,3.379,0,0,0,40.5,97.145V88.708A3.379,3.379,0,0,0,37.125,85.333ZM6.862,110.645H6.75V100.52H8.308Zm26.888,0h-.112L32.192,100.52H33.75Zm5.062-13.5a1.689,1.689,0,0,1-1.687,1.687H3.375a1.689,1.689,0,0,1-1.687-1.687V88.708a1.689,1.689,0,0,1,1.687-1.687h33.75a1.689,1.689,0,0,1,1.687,1.687Z" transform="translate(34 -116.333)" fill="#7e7979"/>
    <path id="Path_10" data-name="Path 10" d="M73.041,128h-27a3.379,3.379,0,0,0-3.375,3.375v1.687a3.379,3.379,0,0,0,3.375,3.375h27a3.379,3.379,0,0,0,3.375-3.375v-1.687A3.379,3.379,0,0,0,73.041,128Zm1.687,5.063a1.689,1.689,0,0,1-1.687,1.687h-27a1.689,1.689,0,0,1-1.687-1.687v-1.687a1.689,1.689,0,0,1,1.687-1.687h27a1.689,1.689,0,0,1,1.687,1.687v1.687Z" transform="translate(-5.291 -155.625)" fill="#7e7979"/>
    <path id="Path_11" data-name="Path 11" d="M110.885,170.667H107.51a.844.844,0,0,0,0,1.688h3.375a.844.844,0,0,0,0-1.688Z" transform="translate(-64.229 -194.917)" fill="#7e7979"/>
    <path id="Path_12" data-name="Path 12" d="M345.552,170.667h-3.375a.844.844,0,0,0,0,1.688h3.375a.844.844,0,0,0,0-1.688Z" transform="translate(-280.333 -194.917)" fill="#7e7979"/>
  </g>
</svg>
