<svg id="Group_78" data-name="Group 78" xmlns="http://www.w3.org/2000/svg" width="22" height="37.714" viewBox="0 0 22 37.714">
  <path id="Path_13" data-name="Path 13" d="M128.667,15.385c0-6.052-4.724-15.385-11-15.385s-11,9.333-11,15.385A11.208,11.208,0,0,0,116.811,26.67l-.581,6.391c-1.876.144-4.848.632-4.848,2.3,0,2.291,5.643,2.357,6.286,2.357s6.286-.066,6.286-2.357c0-1.664-2.973-2.153-4.848-2.3l-.581-6.391A11.208,11.208,0,0,0,128.667,15.385Zm-11-13.814c3.835,0,7.071,6.8,7.071,11.076a8.32,8.32,0,0,1-.742,3.4,11.458,11.458,0,0,0-12.658,0,8.321,8.321,0,0,1-.742-3.4C110.6,8.374,113.832,1.571,117.667,1.571ZM123.2,17.427a6.61,6.61,0,0,1-11.078,0,9.818,9.818,0,0,1,11.078,0ZM119.033,35.1a.776.776,0,0,0,.186-.463,7.946,7.946,0,0,1,3.027.718,10.235,10.235,0,0,1-4.579.786,10.235,10.235,0,0,1-4.579-.786,7.945,7.945,0,0,1,3.027-.718.776.776,0,0,0,.186.463.786.786,0,0,0,.58.256h1.571A.786.786,0,0,0,119.033,35.1Zm-1.366-9.959a9.608,9.608,0,0,1-9.429-9.758,16.114,16.114,0,0,1,1.109-5.426,12.465,12.465,0,0,0-.323,2.689c0,5.157,3.878,9.353,8.643,9.353s8.643-4.2,8.643-9.353a12.464,12.464,0,0,0-.323-2.689,16.114,16.114,0,0,1,1.109,5.427A9.608,9.608,0,0,1,117.667,25.143Z" transform="translate(-106.667)" fill="#7e7979"/>
</svg>
