<svg xmlns="http://www.w3.org/2000/svg" width="34.667" height="26" viewBox="0 0 34.667 26">
  <path id="Path_141" data-name="Path 141" d="M33.222,78.846V66.889A2.892,2.892,0,0,0,30.333,64h-26a2.892,2.892,0,0,0-2.889,2.889V78.846A2.879,2.879,0,0,0,0,81.333v2.889a2.892,2.892,0,0,0,2.889,2.889v2.167A.722.722,0,0,0,3.611,90H5.056a.722.722,0,0,0,.646-.4l1.245-2.49H27.72l1.245,2.49a.722.722,0,0,0,.646.4h1.444a.722.722,0,0,0,.722-.722V87.111a2.892,2.892,0,0,0,2.889-2.889V81.333A2.88,2.88,0,0,0,33.222,78.846ZM2.889,66.889a1.446,1.446,0,0,1,1.444-1.444h26a1.446,1.446,0,0,1,1.444,1.444V78.444H29.936c.087-.105.185-.193.266-.308a.719.719,0,0,0,0-.828,3.766,3.766,0,0,0-3.033-1.753H21.942a3.767,3.767,0,0,0-3.033,1.753.719.719,0,0,0,0,.828c.081.115.178.2.266.308H15.492c.087-.105.185-.193.266-.308a.719.719,0,0,0,0-.828,3.766,3.766,0,0,0-3.033-1.753H7.5a3.767,3.767,0,0,0-3.033,1.753.719.719,0,0,0,0,.828c.081.115.178.2.266.308H2.889ZM28.681,77.722a2.109,2.109,0,0,1-1.512.722H21.942a2.109,2.109,0,0,1-1.512-.722A2.109,2.109,0,0,1,21.942,77h5.228A2.109,2.109,0,0,1,28.681,77.722Zm-14.444,0a2.109,2.109,0,0,1-1.512.722H7.5a2.109,2.109,0,0,1-1.512-.722A2.109,2.109,0,0,1,7.5,77h5.228A2.109,2.109,0,0,1,14.237,77.722ZM4.61,88.556H4.333V87.111h1Zm25.723,0h-.276l-.722-1.444h1Zm2.889-4.333a1.446,1.446,0,0,1-1.444,1.444H2.889a1.446,1.446,0,0,1-1.444-1.444V81.333a1.446,1.446,0,0,1,1.444-1.444H31.778a1.446,1.446,0,0,1,1.444,1.444Z" transform="translate(0 -64)" fill="#7e7979"/>
</svg>
